<?xml version="1.0" standalone="no"?>
<!DOCTYPE svg PUBLIC "-//W3C//DTD SVG 20010904//EN"
 "http://www.w3.org/TR/2001/REC-SVG-20010904/DTD/svg10.dtd">
<svg version="1.0" xmlns="http://www.w3.org/2000/svg"
 width="512.000000pt" height="512.000000pt" viewBox="0 0 512.000000 512.000000"
 preserveAspectRatio="xMidYMid meet">
<metadata>
Created by potrace 1.11, written by Peter Selinger 2001-2013
</metadata>
<g transform="translate(0.000000,512.000000) scale(0.100000,-0.100000)"
fill="#000000" stroke="none">
<path d="M0 2560 l0 -2560 2560 0 2560 0 0 2560 0 2560 -2560 0 -2560 0 0
-2560z m1720 -543 c0 -634 -1 -646 -57 -749 -31 -57 -103 -128 -161 -157 -127
-65 -300 -66 -430 -3 -95 46 -180 161 -185 251 l-2 34 92 22 92 22 31 -64 c24
-49 41 -68 76 -89 40 -23 53 -26 123 -23 71 4 83 7 117 35 59 47 83 106 94
226 5 57 9 322 10 591 l0 487 100 0 100 0 0 -583z m675 478 c362 -871 430
-1027 438 -1014 5 8 112 262 237 565 l227 549 152 3 151 3 0 -751 0 -750 -100
0 -100 0 -2 611 -3 610 -250 -610 -250 -611 -70 0 -70 0 -250 611 -250 610 -3
-610 -2 -611 -100 0 -100 0 0 750 0 751 152 -3 151 -3 42 -100z"/>
</g>
</svg>
